<?xml version="1.0" encoding="UTF-8" standalone="no"?>
<svg
   xmlns:dc="http://purl.org/dc/elements/1.1/"
   xmlns:cc="http://creativecommons.org/ns#"
   xmlns:rdf="http://www.w3.org/1999/02/22-rdf-syntax-ns#"
   xmlns:svg="http://www.w3.org/2000/svg"
   xmlns="http://www.w3.org/2000/svg"
   viewBox="0 0 130.5 300.5"
   height="300.5"
   width="130.5"
   id="svg44"
   version="1.1">
  <metadata
     id="metadata50">
    <rdf:RDF>
      <cc:Work
         rdf:about="">
        <dc:format>image/svg+xml</dc:format>
        <dc:type
           rdf:resource="http://purl.org/dc/dcmitype/StillImage" />
        <dc:title></dc:title>
      </cc:Work>
    </rdf:RDF>
  </metadata>
  <defs
     id="defs48" />
  <path
     transform="rotate(90,276.97661,-51.40539)"
     id="path22"
     d="m 344.27017,220.29737 c 11.76577,0.77106 23.64562,-0.22211 35.12004,-2.93609 6.9196,-1.63665 13.71404,-3.90545 20.04838,-7.13586 7.76127,-3.95812 14.71823,-9.29435 21.74741,-14.44164 7.54237,-5.52308 15.30188,-10.90669 23.95612,-14.44163 10.26421,-4.19256 21.64499,-5.64503 32.6211,-4.07764 15.56193,2.22225 29.63545,10.23724 44.68411,14.78144 13.38477,4.04176 27.55925,5.33829 40.60648,10.364 8.80456,3.39146 16.92504,8.42085 25.82504,11.5533 4.46897,1.5729 9.29286,2.66066 13.93193,1.69902 2.87355,-0.59566 5.56546,-1.97043 7.82009,-3.84892 2.25462,-1.8785 4.07762,-4.25159 5.43223,-6.85488 2.14662,-4.12535 3.11384,-8.78399 3.39637,-13.42583 0.28254,-4.64184 -0.0957,-9.29621 -0.50804,-13.92832 -0.98663,-11.08257 -2.19384,-22.25725 -5.77666,-32.79101 -1.34909,-3.96643 -3.0395,-7.83886 -5.33805,-11.3416 -2.29855,-3.50275 -5.22463,-6.63459 -8.76378,-8.87668 -4.08925,-2.59058 -8.82863,-3.90976 -13.42222,-5.43685 -5.82211,-1.9355 -11.73925,-4.40625 -15.80085,-9.00479 -1.58709,-1.7969 -2.83717,-3.86313 -4.32198,-5.74542 -1.4848,-1.8823 -3.27988,-3.62753 -5.53231,-4.448671 -1.46577,-0.534362 -3.06126,-0.649696 -4.61461,-0.504259 -1.55335,0.145438 -3.07232,0.544288 -4.56008,1.01396 -13.49038,4.25878 -24.63971,14.45719 -31.77159,26.67455 -4.73375,8.10922 -7.98669,17.30184 -14.61153,23.95612 -2.71526,2.72733 -5.90995,4.92821 -9.17469,6.96597 -11.34499,7.08123 -23.95027,12.52497 -33.47061,21.9173 -4.7146,4.65121 -8.61531,10.22258 -14.10183,13.93193 -4.24295,2.86859 -9.20098,4.45893 -14.10183,5.94655 -28.60247,8.6821 -57.88941,15.10816 -87.49931,19.19888"
     style="fill:none;stroke:#000000;stroke-width:1px;stroke-linecap:butt;stroke-linejoin:miter;stroke-opacity:1" />
</svg>
