<?xml version="1.0" encoding="UTF-8" standalone="no"?>
<svg
   xmlns:dc="http://purl.org/dc/elements/1.1/"
   xmlns:cc="http://creativecommons.org/ns#"
   xmlns:rdf="http://www.w3.org/1999/02/22-rdf-syntax-ns#"
   xmlns:svg="http://www.w3.org/2000/svg"
   xmlns="http://www.w3.org/2000/svg"
   id="svg8"
   version="1.1"
   viewBox="0 0 210 297"
   height="297mm"
   width="210mm">
  <defs
     id="defs2" />
  <metadata
     id="metadata5">
    <rdf:RDF>
      <cc:Work
         rdf:about="">
        <dc:format>image/svg+xml</dc:format>
        <dc:type
           rdf:resource="http://purl.org/dc/dcmitype/StillImage" />
        <dc:title></dc:title>
      </cc:Work>
    </rdf:RDF>
  </metadata>
  <g
     id="layer1">
    <path
       id="path21"
       d="M 99.875904,287.58891 C 90.300209,269.93461 79.921857,249.87867 71.108628,231.99678 43.33705,175.6487 27.374068,134.65689 23.883302,110.72547 22.600903,101.93383 23.256449,87.109083 25.471587,74.807366 32.03979,38.331028 52.577493,12.890397 82.658923,3.9678051 91.084429,1.4686783 94.770091,0.96886621 104.58755,0.99407035 c 6.19481,0.0159089 9.59065,0.20654995 12.26809,0.68874685 18.91472,3.4064531 34.49662,12.4149398 46.32242,26.7807398 14.69356,17.849469 22.45062,42.505421 22.55268,71.684123 0.0259,7.37745 -0.26027,9.93397 -2.0405,18.23446 -5.9986,27.96896 -26.19922,75.94304 -58.30254,138.46158 -4.73232,9.21578 -16.0685,30.59254 -19.17337,36.15542 l -1.72631,3.09297 z M 111.59183,130.16428 c 9.32093,-2.76972 16.85758,-11.06899 19.9689,-21.98958 1.02376,-3.5933 1.0891,-4.17442 1.10547,-9.830423 0.0147,-5.093339 -0.10091,-6.488675 -0.75711,-9.136934 -5.01465,-20.237124 -24.18046,-30.122813 -40.170045,-20.719649 -9.717668,5.714769 -15.480659,16.828413 -15.453792,29.80188 0.03429,16.561656 10.413776,30.418056 24.509417,32.719616 2.83454,0.46284 7.66945,0.0845 10.79716,-0.84491 z"
       style="fill:#bf3512;fill-opacity:1;stroke-width:0.37055811" />
  </g>
</svg>
