<?xml version="1.0" encoding="UTF-8" standalone="no"?>
<svg
   xmlns:dc="http://purl.org/dc/elements/1.1/"
   xmlns:cc="http://creativecommons.org/ns#"
   xmlns:rdf="http://www.w3.org/1999/02/22-rdf-syntax-ns#"
   xmlns:svg="http://www.w3.org/2000/svg"
   xmlns="http://www.w3.org/2000/svg"
   viewBox="0 0 1208.5 478.5"
   height="478.5"
   width="1208.5"
   id="svg44"
   version="1.1">
  <metadata
     id="metadata50">
    <rdf:RDF>
      <cc:Work
         rdf:about="">
        <dc:format>image/svg+xml</dc:format>
        <dc:type
           rdf:resource="http://purl.org/dc/dcmitype/StillImage" />
        <dc:title></dc:title>
      </cc:Work>
    </rdf:RDF>
  </metadata>
  <defs
     id="defs48" />
  <g
     id="g66">
    <path
       style="fill:none;stroke:#000000;stroke-width:1px;stroke-linecap:butt;stroke-linejoin:miter;stroke-opacity:1"
       d="m 344.27017,220.29737 c 30.0314,-6.35857 59.77627,-14.0702 89.11418,-23.10367 1.97055,-0.60676 3.94336,-1.22096 5.83939,-2.0311 8.47619,-3.62172 14.78005,-10.82346 21.83424,-16.75651 12.79163,-10.75862 28.54996,-17.65374 40.87574,-28.94306 8.45495,-7.74399 15.00639,-17.29352 22.35881,-26.0911 7.35243,-8.79758 15.90151,-17.11773 26.64129,-21.1318 1.23375,-0.46112 2.49985,-0.86476 3.8083,-1.01555 1.954,-0.22519 3.94791,0.12556 5.78538,0.82734 1.83748,0.70177 3.52823,1.74588 5.10448,2.92242 3.1525,2.35308 5.88616,5.25096 9.16718,7.42125 3.83751,2.53839 8.27273,3.98532 12.61059,5.51924 4.33785,1.53392 8.72135,3.23125 12.27029,6.15954 5.42904,4.47959 8.29295,11.31311 10.40935,18.02594 1.81511,5.7572 3.2306,11.63209 4.56996,17.51818 2.78957,12.25932 5.26076,24.99324 2.79275,37.32132 -0.8293,4.14245 -2.23563,8.22218 -4.62015,11.70954 -2.38452,3.48737 -5.80973,6.35592 -9.85138,7.58584 -2.82259,0.85894 -5.85704,0.89918 -8.76017,0.37323 -2.90313,-0.52595 -5.68473,-1.6035 -8.31733,-2.9355 -5.2652,-2.66399 -9.96083,-6.33721 -15.16609,-9.11651 -11.80118,-6.30113 -25.49385,-7.68115 -38.59076,-10.40935 -15.95382,-3.32332 -31.4566,-8.80496 -45.95347,-16.24874"
       id="path60" />
    <path
       style="fill:none;stroke:#000000;stroke-width:1px;stroke-linecap:butt;stroke-linejoin:miter;stroke-opacity:1"
       d="m 486.19275,177.89832 c -16.2747,-3.88217 -33.92789,-1.67552 -48.74622,6.09328 -9.56951,5.017 -17.83414,12.16599 -26.91197,18.02594 -19.55054,12.62032 -43.00848,19.09148 -66.26439,18.27983"
       id="path64" />
  </g>
</svg>
