<?xml version="1.0" encoding="UTF-8" standalone="no"?>
<svg
   xmlns:dc="http://purl.org/dc/elements/1.1/"
   xmlns:cc="http://creativecommons.org/ns#"
   xmlns:rdf="http://www.w3.org/1999/02/22-rdf-syntax-ns#"
   xmlns:svg="http://www.w3.org/2000/svg"
   xmlns="http://www.w3.org/2000/svg"
   viewBox="0 0 1208.5 478.5"
   height="478.5"
   width="1208.5"
   id="svg44"
   version="1.1">
  <metadata
     id="metadata50">
    <rdf:RDF>
      <cc:Work
         rdf:about="">
        <dc:format>image/svg+xml</dc:format>
        <dc:type
           rdf:resource="http://purl.org/dc/dcmitype/StillImage" />
        <dc:title></dc:title>
      </cc:Work>
    </rdf:RDF>
  </metadata>
  <defs
     id="defs48" />
  <path
     id="path68"
     d="m 342.74685,223.09013 c 26.24643,-4.00039 51.86679,-12.08198 75.65819,-23.86534 15.64184,-7.74706 30.4506,-17.05643 45.19181,-26.4042 16.51007,-10.46945 33.20202,-21.11832 51.79286,-27.16586 14.17817,-4.61211 29.33354,-6.50241 42.65294,-13.2021 9.18549,-4.62032 17.26367,-11.42531 26.91197,-14.97931 9.9271,-3.6567 20.82491,-3.60745 31.35896,-2.63142 10.53406,0.97603 21.02766,2.83319 31.60491,2.63142 6.64529,-0.12676 13.24791,-1.06623 19.88393,-1.43933 6.63602,-0.37311 13.41837,-0.15897 19.72237,1.9471 6.19311,2.06902 11.69061,5.89973 16.3727,10.45094 4.68208,4.55121 8.60051,9.82253 12.31648,15.1916 11.20862,16.19492 20.84562,33.59867 34.0208,48.23845 5.92569,6.58442 12.50777,12.54003 18.7876,18.7876 10.54952,10.49531 20.38465,21.93553 32.75137,30.2125 18.39883,12.31422 41.08606,16.67678 63.21775,17.26429 23.57512,0.62583 47.05229,-2.70259 70.58046,-4.31607 20.98044,-1.43877 42.79566,-1.69297 61.69444,-10.91712 14.48541,-7.07004 26.49171,-19.10465 41.89131,-23.86534 2.3193,-0.71699 4.7089,-1.26135 7.1348,-1.35066 2.426,-0.0893 4.8983,0.29183 7.0828,1.35066 1.6762,0.81244 3.1724,2.03062 4.2003,3.58401 1.0279,1.55338 1.5681,3.44834 1.3852,5.30202 -0.2243,2.27377 -1.5071,4.34382 -3.1668,5.9141 -1.6597,1.57027 -3.6825,2.6982 -5.7192,3.73359 -21.0171,10.68418 -45.1123,12.97389 -68.29549,17.26429 -21.95571,4.06323 -43.69763,10.08156 -66.01051,10.91712 -24.22103,0.90702 -48.45824,-4.39374 -70.83435,-13.70988 -35.05049,-14.59304 -65.47128,-38.78311 -91.39916,-66.51827 -20.29455,-21.70917 -38.92297,-46.3715 -65.50273,-59.66334 -24.51966,-12.26164 -53.50755,-13.33816 -80.3325,-7.68277 -26.82496,5.6554 -51.88377,17.60996 -76.06161,30.53256 -45.82401,24.49207 -90.13322,53.08114 -139.8915,68.04159 -15.9588,4.79821 -32.37505,8.14682 -48.97905,9.56563 -35.39764,3.02472 -71.04096,-2.75669 -105.38397,-11.85061 -5.43915,-1.44027 -10.85624,-2.96382 -16.24874,-4.56995"
     style="fill:none;stroke:#000000;stroke-width:1px;stroke-linecap:butt;stroke-linejoin:miter;stroke-opacity:1" />
</svg>
