<?xml version="1.0" encoding="UTF-8" standalone="no"?>
<svg
   xmlns:dc="http://purl.org/dc/elements/1.1/"
   xmlns:cc="http://creativecommons.org/ns#"
   xmlns:rdf="http://www.w3.org/1999/02/22-rdf-syntax-ns#"
   xmlns:svg="http://www.w3.org/2000/svg"
   xmlns="http://www.w3.org/2000/svg"
   id="svg8"
   version="1.1"
   viewBox="0 0 210 297"
   height="297mm"
   width="210mm">
  <defs
     id="defs2" />
  <metadata
     id="metadata5">
    <rdf:RDF>
      <cc:Work
         rdf:about="">
        <dc:format>image/svg+xml</dc:format>
        <dc:type
           rdf:resource="http://purl.org/dc/dcmitype/StillImage" />
        <dc:title></dc:title>
      </cc:Work>
    </rdf:RDF>
  </metadata>
  <g
     id="layer1">
    <path
       transform="matrix(0.92558044,0,0,0.8841647,97.815591,-5.6649473)"
       id="path4529"
       d="m -99.68318,185.03912 c 11.401012,-1.55911 22.801727,-3.11818 30.986796,-5.60299 8.185068,-2.48481 13.154738,-5.89537 22.947077,-1.51074 9.792339,4.38463 24.409531,16.56563 38.051462,24.99437 13.6419314,8.42875 26.309417,13.10598 35.615124,16.02922 9.305708,2.92325 15.249738,4.09257 22.167861,10.66964 6.918124,6.57708 14.811197,18.56286 21.729769,22.50918 6.918571,3.94632 12.862506,-0.14622 19.7319,-0.97441 6.869394,-0.82819 14.665151,1.60798 19.439781,0.92574 4.77463,-0.68223 6.52862,-4.48255 4.04409,-8.67219 -2.48453,-4.18963 -9.2086,-8.76979 -20.268263,-12.81365 C 83.702752,226.54943 68.307046,223.04155 49.744186,217.48731 31.181325,211.93307 9.4520312,204.33269 -7.4055211,196.82963 -24.263073,189.32656 -36.248356,181.92102 -50.426103,179.92341 c -14.177747,-1.9976 -30.547904,1.41285 -38.830498,3.11811 -8.282594,1.70527 -8.477475,1.70527 -8.672624,1.70527"
       style="fill:none;stroke:#000000;stroke-width:0.26458332px;stroke-linecap:butt;stroke-linejoin:miter;stroke-opacity:1" />
  </g>
</svg>
