<?xml version="1.0" encoding="UTF-8" standalone="no"?>
<!-- Created with Inkscape (http://www.inkscape.org/) -->

<svg
   xmlns:dc="http://purl.org/dc/elements/1.1/"
   xmlns:cc="http://creativecommons.org/ns#"
   xmlns:rdf="http://www.w3.org/1999/02/22-rdf-syntax-ns#"
   xmlns:svg="http://www.w3.org/2000/svg"
   xmlns="http://www.w3.org/2000/svg"
   xmlns:sodipodi="http://sodipodi.sourceforge.net/DTD/sodipodi-0.dtd"
   xmlns:inkscape="http://www.inkscape.org/namespaces/inkscape"
   version="1.1"
   id="svg44"
   width="220.5"
   height="850"
   viewBox="0 0 220.5 850"
   sodipodi:docname="alle_path.svg"
   inkscape:version="0.92.4 (5da689c313, 2019-01-14)">
  <metadata
     id="metadata50">
    <rdf:RDF>
      <cc:Work
         rdf:about="">
        <dc:format>image/svg+xml</dc:format>
        <dc:type
           rdf:resource="http://purl.org/dc/dcmitype/StillImage" />
        <dc:title></dc:title>
      </cc:Work>
    </rdf:RDF>
  </metadata>
  <defs
     id="defs48">
    <inkscape:path-effect
       effect="spiro"
       id="path-effect66"
       is_visible="true" />
    <inkscape:path-effect
       effect="spiro"
       id="path-effect62"
       is_visible="true" />
    <inkscape:path-effect
       effect="spiro"
       id="path-effect58"
       is_visible="true" />
    <inkscape:path-effect
       effect="spiro"
       id="path-effect70"
       is_visible="true" />
  </defs>
  <sodipodi:namedview
     pagecolor="#ffffff"
     bordercolor="#666666"
     borderopacity="1"
     objecttolerance="10"
     gridtolerance="10"
     guidetolerance="10"
     inkscape:pageopacity="0"
     inkscape:pageshadow="2"
     inkscape:window-width="2560"
     inkscape:window-height="1315"
     id="namedview46"
     showgrid="false"
     inkscape:zoom="5.6568543"
     inkscape:cx="147.61172"
     inkscape:cy="649.19787"
     inkscape:window-x="-13"
     inkscape:window-y="-13"
     inkscape:window-maximized="1"
     inkscape:current-layer="svg44" />
  <path
     style="fill:none;stroke:#000000;stroke-width:1px;stroke-linecap:butt;stroke-linejoin:miter;stroke-opacity:1"
     d="m 226.72069,214.2041 c 13.25624,-4.51001 28.11212,-4.1432 41.12963,1.01554 9.5951,3.80246 18.1942,10.09043 28.1814,12.69433 7.72301,2.01357 15.8821,1.70224 23.77122,0.49343 7.88911,-1.20881 15.61591,-3.2929 23.45168,-4.8095 6.35725,-1.23044 12.78839,-2.08774 19.09501,-3.55576 6.30663,-1.46802 12.5429,-3.57918 17.97243,-7.10748 2.54739,-1.65538 4.89011,-3.60463 7.37719,-5.34932 2.48707,-1.7447 5.16377,-3.30297 8.10989,-4.04448 4.1069,-1.03367 8.49573,-0.40335 12.46862,1.06339 3.97288,1.46673 7.59531,3.73238 11.14283,6.04543 18.42506,12.01349 36.21606,25.99273 57.37836,31.98971 10.87969,3.08309 22.25212,3.92292 33.36903,5.99347 11.11692,2.07055 22.37124,5.582 30.86427,13.04802 4.60063,4.04431 8.19611,9.07896 12.13082,13.77368 3.93471,4.69471 8.39452,9.18971 14.01949,11.61498 6.72679,2.90033 14.4453,2.5316 21.59072,0.91775 7.14542,-1.61385 13.97446,-4.39862 21.06222,-6.24937 6.70923,-1.7519 13.64285,-2.66518 20.20365,-4.90991 3.2804,-1.12237 6.46452,-2.58228 9.30558,-4.56951 2.84107,-1.98724 5.33576,-4.51757 7.05044,-7.53098 0.9342,-1.64178 1.63913,-3.44771 1.7772,-5.33162 0.19291,-2.63223 -0.74458,-5.26206 -2.23566,-7.4398 -1.49108,-2.17774 -3.5084,-3.94501 -5.63482,-5.50841 -11.28713,-8.2986 -25.87206,-11.18271 -39.86019,-10.40935 -8.08056,0.44675 -16.04941,2.02649 -24.06836,3.11806 -8.01895,1.09158 -16.21894,1.69058 -24.17008,0.18247 -11.65035,-2.20975 -21.98378,-8.76896 -33.25914,-12.44045 -12.35232,-4.02217 -25.60596,-4.50752 -38.08299,-8.12437 -10.89861,-3.1593 -20.95754,-8.63193 -30.97415,-13.96376 -8.79616,-4.68219 -17.83228,-9.3541 -27.67364,-10.91712 -9.63627,-1.53045 -19.51675,0.02 -28.94307,2.53887 -17.66025,4.71904 -34.39652,12.87038 -49.0001,23.86533"
     id="path56"
     inkscape:connector-curvature="0"
     inkscape:path-effect="#path-effect58"
     inkscape:original-d="m 226.72069,214.2041 c 13.71088,0.33751 27.42075,0.67603 41.12963,1.01554 13.70887,0.33952 18.7886,8.46189 28.1814,12.69433 9.39281,4.23244 31.48294,-2.87838 47.2229,-4.31607 15.73997,-1.43769 24.71263,-7.10982 37.06744,-10.66324 12.35481,-3.55341 10.32572,-6.26353 15.48708,-9.3938 5.16136,-3.13027 15.74197,4.73822 23.61145,7.10882 7.86948,2.37061 38.25324,21.32548 57.37836,31.98971 19.12512,10.66424 42.8232,12.69333 64.2333,19.04149 21.4101,6.34817 17.43454,16.92477 26.15031,25.38866 8.71578,8.46388 28.4363,-3.55541 42.65294,-5.33162 14.21665,-1.77621 24.37411,-11.34127 36.55967,-17.0104 12.18555,-5.66913 1.1858,-3.55541 1.7772,-5.33162 0.59141,-1.7762 -5.24598,-8.63314 -7.87048,-12.94821 -2.62449,-4.31507 -26.57246,-6.94057 -39.86019,-10.40935 -13.28773,-3.46878 -32.15796,2.19935 -48.23844,3.30053 -16.08049,1.10117 -22.17176,-8.29463 -33.25914,-12.44045 -11.08738,-4.14581 -25.38766,-5.41724 -38.08299,-8.12437 -12.69532,-2.70712 -20.64844,-9.31017 -30.97415,-13.96376 -10.32572,-4.65358 -18.44809,-7.27908 -27.67364,-10.91712 -9.22554,-3.63804 -19.29438,1.69158 -28.94307,2.53887 -9.64869,0.84729 -32.66573,15.90922 -49.0001,23.86533"
     transform="rotate(90,255.78574,41.21665)" />
  <path
     style="fill:none;stroke:#000000;stroke-width:1px;stroke-linecap:butt;stroke-linejoin:miter;stroke-opacity:1"
     d="m 344.27017,220.29737 c 30.0314,-6.35857 59.77627,-14.0702 89.11418,-23.10367 1.97055,-0.60676 3.94336,-1.22096 5.83939,-2.0311 8.47619,-3.62172 14.78005,-10.82346 21.83424,-16.75651 12.79163,-10.75862 28.54996,-17.65374 40.87574,-28.94306 8.45495,-7.74399 15.00639,-17.29352 22.35881,-26.0911 7.35243,-8.79758 15.90151,-17.11773 26.64129,-21.1318 1.23375,-0.46112 2.49985,-0.86476 3.8083,-1.01555 1.954,-0.22519 3.94791,0.12556 5.78538,0.82734 1.83748,0.70177 3.52823,1.74588 5.10448,2.92242 3.1525,2.35308 5.88616,5.25096 9.16718,7.42125 3.83751,2.53839 8.27273,3.98532 12.61059,5.51924 4.33785,1.53392 8.72135,3.23125 12.27029,6.15954 5.42904,4.47959 8.29295,11.31311 10.40935,18.02594 1.81511,5.7572 3.2306,11.63209 4.56996,17.51818 2.78957,12.25932 5.26076,24.99324 2.79275,37.32132 -0.8293,4.14245 -2.23563,8.22218 -4.62015,11.70954 -2.38452,3.48737 -5.80973,6.35592 -9.85138,7.58584 -2.82259,0.85894 -5.85704,0.89918 -8.76017,0.37323 -2.90313,-0.52595 -5.68473,-1.6035 -8.31733,-2.9355 -5.2652,-2.66399 -9.96083,-6.33721 -15.16609,-9.11651 -11.80118,-6.30113 -25.49385,-7.68115 -38.59076,-10.40935 -15.95382,-3.32332 -31.4566,-8.80496 -45.95347,-16.24874"
     id="path60"
     inkscape:connector-curvature="0"
     inkscape:original-d="m 344.27017,220.29737 c 29.70573,-7.70222 59.41045,-15.40345 89.11418,-23.10367 29.70373,-7.70023 3.89393,-1.35506 5.83939,-2.0311 1.94546,-0.67603 14.55716,-11.172 21.83424,-16.75651 7.27708,-5.5845 27.25149,-19.29638 40.87574,-28.94306 13.62424,-9.64669 32.66774,-31.48294 49.0001,-47.2229 16.33237,-15.739971 2.53987,-0.67803 3.8083,-1.01555 1.26843,-0.33752 13.37236,7.44634 20.05704,11.17101 6.68468,3.72467 16.58825,7.78485 24.88088,11.67878 8.29263,3.89393 6.94057,12.0163 10.40935,18.02594 3.46878,6.00965 3.04764,11.67779 4.56996,17.51818 1.52232,5.84039 1.86283,24.87988 2.79275,37.32132 0.92992,12.44144 -9.64669,12.86259 -14.47153,19.29538 -4.82485,6.43279 -21.49473,-7.78686 -32.24359,-11.67878 -10.74887,-3.89193 -25.72618,-6.94057 -38.59076,-10.40935 -12.86459,-3.46878 -30.63465,-10.83349 -45.95347,-16.24874"
     sodipodi:nodetypes="cscssssssssssssc"
     transform="rotate(90,255.78574,41.21665)"
     inkscape:path-effect="#path-effect62" />
  <path
     style="fill:none;stroke:#000000;stroke-width:1px;stroke-linecap:butt;stroke-linejoin:miter;stroke-opacity:1"
     d="m 486.19275,177.89832 c -16.2747,-3.88217 -33.92789,-1.67552 -48.74622,6.09328 -9.56951,5.017 -17.83414,12.16599 -26.91197,18.02594 -19.55054,12.62032 -43.00848,19.09148 -66.26439,18.27983"
     id="path64"
     inkscape:connector-curvature="0"
     inkscape:original-d="m 486.19275,177.89832 c -16.24774,2.03009 -32.49648,4.06118 -48.74622,6.09328 -16.24973,2.03209 -17.94031,12.01629 -26.91197,18.02594 -8.97166,6.00965 -44.17526,12.18555 -66.26439,18.27983"
     transform="rotate(90,255.78574,41.21665)"
     inkscape:path-effect="#path-effect66" />
  <path
     transform="rotate(90,317.03237,104.14556)"
     style="fill:none;stroke:#000000;stroke-width:1px;stroke-linecap:butt;stroke-linejoin:miter;stroke-opacity:1"
     d="m 342.74685,223.09013 c 26.24643,-4.00039 51.86679,-12.08198 75.65819,-23.86534 15.64184,-7.74706 30.4506,-17.05643 45.19181,-26.4042 16.51007,-10.46945 33.20202,-21.11832 51.79286,-27.16586 14.17817,-4.61211 29.33354,-6.50241 42.65294,-13.2021 9.18549,-4.62032 17.26367,-11.42531 26.91197,-14.97931 9.9271,-3.6567 20.82491,-3.60745 31.35896,-2.63142 10.53406,0.97603 21.02766,2.83319 31.60491,2.63142 6.64529,-0.12676 13.24791,-1.06623 19.88393,-1.43933 6.63602,-0.37311 13.41837,-0.15897 19.72237,1.9471 6.19311,2.06902 11.69061,5.89973 16.3727,10.45094 4.68208,4.55121 8.60051,9.82253 12.31648,15.1916 11.20862,16.19492 20.84562,33.59867 34.0208,48.23845 5.92569,6.58442 12.50777,12.54003 18.7876,18.7876 10.54952,10.49531 20.38465,21.93553 32.75137,30.2125 18.39883,12.31422 41.08606,16.67678 63.21775,17.26429 23.57512,0.62583 47.05229,-2.70259 70.58046,-4.31607 20.98044,-1.43877 42.79566,-1.69297 61.69444,-10.91712 14.48541,-7.07004 26.49171,-19.10465 41.89131,-23.86534 2.3193,-0.71699 4.7089,-1.26135 7.1348,-1.35066 2.426,-0.0893 4.8983,0.29183 7.0828,1.35066 1.6762,0.81244 3.1724,2.03062 4.2003,3.58401 1.0279,1.55338 1.5681,3.44834 1.3852,5.30202 -0.2243,2.27377 -1.5071,4.34382 -3.1668,5.9141 -1.6597,1.57027 -3.6825,2.6982 -5.7192,3.73359 -21.0171,10.68418 -45.1123,12.97389 -68.29549,17.26429 -21.95571,4.06323 -43.69763,10.08156 -66.01051,10.91712 -24.22103,0.90702 -48.45824,-4.39374 -70.83435,-13.70988 -35.05049,-14.59304 -65.47128,-38.78311 -91.39916,-66.51827 -20.29455,-21.70917 -38.92297,-46.3715 -65.50273,-59.66334 -24.51966,-12.26164 -53.50755,-13.33816 -80.3325,-7.68277 -26.82496,5.6554 -51.88377,17.60996 -76.06161,30.53256 -45.82401,24.49207 -90.13322,53.08114 -139.8915,68.04159 -15.9588,4.79821 -32.37505,8.14682 -48.97905,9.56563 -35.39764,3.02472 -71.04096,-2.75669 -105.38397,-11.85061 -5.43915,-1.44027 -10.85624,-2.96382 -16.24874,-4.56995"
     id="path68"
     inkscape:connector-curvature="0"
     inkscape:path-effect="#path-effect70"
     inkscape:original-d="m 342.74685,223.09013 c 25.2204,-7.95612 50.43979,-15.91123 75.65819,-23.86534 25.2184,-7.95411 30.12887,-17.6038 45.19181,-26.4042 15.06293,-8.8004 34.52957,-18.11158 51.79286,-27.16586 17.26328,-9.05429 28.43629,-8.8024 42.65294,-13.2021 14.21664,-4.3997 17.94231,-9.98721 26.91197,-14.97931 8.96966,-4.9921 41.97691,-0.001 62.96387,0 20.98695,0.001 26.4052,0.33751 39.6063,0.50777 13.2011,0.17026 19.12712,17.09403 28.68918,25.64254 9.56206,8.54852 22.68153,32.15797 34.0208,48.23845 11.33927,16.08048 12.52607,12.52407 18.7876,18.7876 6.26154,6.26354 21.83525,20.14067 32.75137,30.2125 10.91612,10.07184 42.14617,11.50853 63.21775,17.26429 21.07159,5.75576 47.05464,-2.87838 70.58046,-4.31607 23.52583,-1.43769 41.13063,-7.27908 61.69444,-10.91712 20.56381,-3.63804 27.92851,-15.91123 41.89131,-23.86534 13.9627,-7.95411 9.4794,-0.001 14.2176,0 4.7382,0.001 3.7247,5.92302 5.5855,8.88603 1.8609,2.96301 -5.923,6.43079 -8.886,9.64769 -2.963,3.2169 -45.5293,11.50852 -68.29549,17.26429 -22.76616,5.75576 -44.00601,7.27708 -66.01051,10.91712 -22.0045,3.64004 -47.2219,-9.14092 -70.83435,-13.70988 -23.61245,-4.56895 -60.93177,-44.34652 -91.39916,-66.51827 -30.46738,-22.17176 -43.66748,-39.77656 -65.50273,-59.66334 -21.83524,-19.88678 -104.26174,15.23219 -156.39411,22.84979 -52.13238,7.61759 -93.26,45.36006 -139.8915,68.04159 -46.63149,22.68153 -32.6517,6.37609 -48.97905,9.56563 -16.32735,3.18955 -70.25498,-7.9014 -105.38397,-11.85061 -35.12899,-3.9492 -10.83149,-3.04764 -16.24874,-4.56995" />
</svg>
