<?xml version="1.0" encoding="UTF-8" standalone="no"?>
<svg
   xmlns:dc="http://purl.org/dc/elements/1.1/"
   xmlns:cc="http://creativecommons.org/ns#"
   xmlns:rdf="http://www.w3.org/1999/02/22-rdf-syntax-ns#"
   xmlns:svg="http://www.w3.org/2000/svg"
   xmlns="http://www.w3.org/2000/svg"
   version="1.1"
   id="svg44"
   width="104.5"
   height="478.5"
   viewBox="0 0 104.5 478.5">
  <metadata
     id="metadata50">
    <rdf:RDF>
      <cc:Work
         rdf:about="">
        <dc:format>image/svg+xml</dc:format>
        <dc:type
           rdf:resource="http://purl.org/dc/dcmitype/StillImage" />
        <dc:title></dc:title>
      </cc:Work>
    </rdf:RDF>
  </metadata>
  <defs
     id="defs48" />
  <path
     style="fill:none;stroke:#000000;stroke-width:1px;stroke-linecap:butt;stroke-linejoin:miter;stroke-opacity:1"
     d="m 78.51153,30.518199 c 4.51001,13.25624 4.1432,28.11212 -1.01554,41.12963 -3.80246,9.5951 -10.09043,18.1942 -12.69433,28.1814 -2.01357,7.723011 -1.70224,15.882101 -0.49343,23.771221 1.20881,7.88911 3.2929,15.61591 4.8095,23.45168 1.23044,6.35725 2.08774,12.78839 3.55576,19.09501 1.46802,6.30663 3.57918,12.5429 7.10748,17.97243 1.65538,2.54739 3.60463,4.89011 5.34932,7.37719 1.7447,2.48707 3.30297,5.16377 4.04448,8.10989 1.03367,4.1069 0.40335,8.49573 -1.06339,12.46862 -1.46673,3.97288 -3.73238,7.59531 -6.04543,11.14283 -12.01349,18.42506 -25.99273,36.21606 -31.98971,57.37836 -3.08309,10.87969 -3.92292,22.25212 -5.99347,33.36903 -2.07055,11.11692 -5.582,22.37124 -13.04802,30.86427 -4.04431,4.60063 -9.07896,8.19611 -13.77368,12.13082 -4.69471,3.93471 -9.18971,8.39452 -11.61498,14.01949 -2.90033,6.72679 -2.5316,14.4453 -0.91775,21.59072 1.61385,7.14542 4.39862,13.97446 6.24937,21.06222 1.7519,6.70923 2.66518,13.64285 4.90991,20.20365 1.12237,3.2804 2.58228,6.46452 4.56951,9.30558 1.98724,2.84107 4.51757,5.33576 7.53098,7.05044 1.64178,0.9342 3.44771,1.63913 5.33162,1.7772 2.63223,0.19291 5.26206,-0.74458 7.4398,-2.23566 2.17774,-1.49108 3.94501,-3.5084 5.50841,-5.63482 8.2986,-11.28713 11.18271,-25.87206 10.40935,-39.86019 -0.44675,-8.08056 -2.02649,-16.04941 -3.11806,-24.06836 -1.09158,-8.01895 -1.69058,-16.21894 -0.18247,-24.17008 2.20975,-11.65035 8.76896,-21.98378 12.44045,-33.25914 4.02217,-12.35232 4.50752,-25.60596 8.12437,-38.08299 3.1593,-10.89861 8.63193,-20.95754 13.96376,-30.97415 4.68219,-8.79616 9.3541,-17.83228 10.91712,-27.67364 1.53045,-9.63627 -0.02,-19.51675 -2.53887,-28.94307 -4.71904,-17.66025 -12.87038,-34.39652 -23.86533,-49.0001"
     id="path56" />
</svg>
