<?xml version="1.0" encoding="UTF-8" standalone="no"?>
<svg
   xmlns:dc="http://purl.org/dc/elements/1.1/"
   xmlns:cc="http://creativecommons.org/ns#"
   xmlns:rdf="http://www.w3.org/1999/02/22-rdf-syntax-ns#"
   xmlns:svg="http://www.w3.org/2000/svg"
   xmlns="http://www.w3.org/2000/svg"
   viewBox="0 0 1708.5 1478.5"
   height="1478.5"
   width="1708.5"
   id="svg44"
   version="1.1">
  <metadata
     id="metadata50">
    <rdf:RDF>
      <cc:Work
         rdf:about="">
        <dc:format>image/svg+xml</dc:format>
        <dc:type
           rdf:resource="http://purl.org/dc/dcmitype/StillImage" />
        <dc:title></dc:title>
      </cc:Work>
    </rdf:RDF>
  </metadata>
  <defs
     id="defs48" />
  <path
     d="m 913.40042,1326.9293 -4.80278,-4.3981 -6.34584,1.4631 2.69873,-5.9269 -3.35241,-5.5831 6.47068,0.7352 4.27393,-4.9137 1.30038,6.3812 5.99385,2.5464 -5.66701,3.2086 z"
     id="path54"
     style="fill:#bf3512;fill-opacity:1" />
  <path
     id="path56"
     d="m 177.41016,165.2793 c -27.41276,63.0569 -35.74358,97.55815 -37.1875,104.16015 -11.76282,53.783 -95.011396,290.17308 -49.513676,462.38867 55.960566,211.81904 287.486646,378.73208 344.033206,414.09178 93.02435,55.7322 99.30174,36.4226 187.46484,88.9199 11.35616,6.8664 122.58709,59.1837 133.27149,67.0547 12.4497,9.1715 25.38106,18.041 39.92578,23.291 10.63187,3.8377 21.96876,5.6577 33.27148,5.545 11.83592,-0.118 23.54716,-2.3274 35.1211,-4.8067 7.16215,-1.5343 14.3006,-3.174 21.4414,-4.8047 9.46428,-2.1614 11.98829,-2.9953 21.46057,-5.1214 l 9.50128,-3.8087 c 5.50818,-8.2917 7.20917,-7.3372 13.48542,-9.8687 -6.52892,1.9682 -19.44891,1.5506 -21.61675,10.8992 15.34981,6.4594 23.60288,4.8554 35.0773,2.1414 6.9196,-1.6366 13.71404,-3.9054 20.04838,-7.1359 7.76127,-3.9581 14.71823,-9.2943 21.74741,-14.4416 7.54237,-5.5231 15.30191,-10.9067 23.95611,-14.4416 10.2642,-4.1926 21.645,-5.6451 32.6211,-4.0777 15.562,2.2223 29.6355,10.2373 44.6841,14.7815 13.3848,4.0417 27.5593,5.3383 40.6065,10.364 8.8046,3.3914 16.9251,8.4208 25.8251,11.5533 4.469,1.5729 9.2928,2.6606 13.9319,1.699 2.8736,-0.5957 5.5655,-1.9704 7.8201,-3.8489 2.2546,-1.8785 4.0776,-4.2516 5.4322,-6.8549 2.1467,-4.1254 3.1139,-8.784 3.3964,-13.4258 0.2825,-4.6419 -0.096,-9.2962 -0.508,-13.9284 -0.9867,-11.0825 -2.1939,-22.2572 -5.7767,-32.791 -1.3491,-3.9664 -3.0395,-7.8388 -5.338,-11.3416 -2.2986,-3.5027 -5.2247,-6.6346 -8.7638,-8.8766 -4.0893,-2.5906 -8.8287,-3.9098 -13.4222,-5.4369 -5.8222,-1.9355 -11.7393,-4.4062 -15.8009,-9.0048 -1.5871,-1.7969 -2.8372,-3.8631 -4.322,-5.7454 -1.4848,-1.8823 -3.2799,-3.6275 -5.5323,-4.4487 -1.4658,-0.5343 -3.0613,-0.6497 -4.6146,-0.5042 -1.5534,0.1454 -3.0723,0.5443 -4.5601,1.0139 -13.4904,4.2588 -24.6397,14.4572 -31.7716,26.6746 -4.7337,8.1092 -7.9867,17.3018 -14.6115,23.9561 -2.7153,2.7273 -5.91,4.9282 -9.1747,6.966 -11.345,7.0812 -23.9503,12.5249 -33.4706,21.9173 -4.7146,4.6512 -8.6153,10.2225 -14.1019,13.9319 -4.2429,2.8686 -6.3186,5.114 -11.2195,6.6016 -28.60247,8.6821 -62.5483,10.6127 -91.26991,17.6236 27.13473,-1.0802 52.75509,-9.1618 76.54649,-20.9451 15.64182,-7.7471 30.45062,-17.0564 45.19182,-26.4042 16.5101,-10.4695 33.202,-21.1183 51.7929,-27.1659 14.1781,-4.6121 29.3335,-6.5024 42.6529,-13.2021 9.1855,-4.6203 17.2637,-11.4253 26.912,-14.9793 9.9271,-3.6567 20.8249,-3.6074 31.359,-2.6314 10.534,0.976 21.0276,2.8332 31.6049,2.6314 6.6453,-0.1267 13.2479,-1.0662 19.8839,-1.4393 6.636,-0.3731 13.4184,-0.159 19.7224,1.9471 6.1931,2.069 11.6906,5.8997 16.3727,10.4509 4.6821,4.5512 8.6005,9.8225 12.3165,15.1916 11.2086,16.1949 20.8456,33.5987 34.0208,48.2385 5.9256,6.5844 12.5077,12.54 18.7876,18.7876 10.5495,10.4953 20.3846,21.9355 32.7513,30.2125 18.3989,12.3142 41.0861,16.6767 63.2177,17.2643 23.5752,0.6258 47.0523,-2.7026 70.5805,-4.3161 20.9804,-1.4388 42.7957,-1.693 61.6944,-10.9171 14.4855,-7.0701 26.4918,-19.1047 41.8914,-23.8654 2.3193,-0.717 4.7089,-1.2613 7.1348,-1.3506 2.426,-0.089 4.8983,0.2918 7.0828,1.3506 1.6762,0.8125 3.1724,2.0307 4.2003,3.584 1.0279,1.5534 1.5681,3.4484 1.3852,5.3021 -0.2243,2.2737 -1.5071,4.3438 -3.1668,5.9141 -1.6597,1.5702 -3.6825,2.6982 -5.7192,3.7335 -21.0171,10.6842 -45.1123,12.9737 -68.2955,17.2643 -21.9557,4.0635 -43.6976,10.0824 -66.0105,10.9172 -24.221,0.9062 -48.4572,-4.3967 -70.8344,-13.7099 -35.0532,-14.5888 -65.4875,-38.7666 -91.3991,-66.5183 -20.2833,-21.7236 -38.8927,-46.4258 -65.5028,-59.6633 -24.524,-12.1998 -53.4952,-13.1376 -80.2859,-7.4349 -26.7908,5.7028 -51.8241,17.614 -76.1082,30.2847 -46.0271,24.0153 -90.7579,51.2752 -139.89151,68.0416 -15.82005,5.3984 -32.26389,9.7096 -48.97905,9.5656 -11.05369,-0.095 -22.06745,-2.1394 -33.10517,-1.5378 -17.56688,0.9573 -34.15023,8.5387 -51.62281,10.5931 -13.18222,1.55 -26.9691,-0.207 -38.66274,-6.4865 -7.94573,-4.2669 -14.66958,-10.4364 -21.54963,-16.2679 -30.18589,-25.5851 -65.05696,-45.5429 -102.28147,-58.9516 -9.56748,-3.4463 -222.05602,-66.1251 -368.51759,-210.2875 C 76.315442,824.94787 75.987892,749.79437 74.797242,687.69487 73.168222,602.73247 133.28729,241.55567 177.41082,167.28017 M 929.68555,1302.3203 c 10.31267,-3.1087 21.28349,-4.0481 31.95312,-2.5566 8.16991,1.142 16.1259,3.6423 23.61133,7.1093 19.9177,9.2251 36.5064,25.1945 57.3789,31.9883 10.7426,3.4966 22.1279,4.3856 33.25,6.3672 11.1222,1.9815 22.4405,5.2822 30.9824,12.6758 4.6309,4.0083 8.2344,9.0389 12.1621,13.7383 3.9278,4.6993 8.3698,9.2125 13.9883,11.6504 6.7214,2.9164 14.4457,2.5507 21.5918,0.9336 7.1461,-1.6171 13.9744,-4.4107 21.0625,-6.2657 6.7081,-1.7555 13.6403,-2.6702 20.2012,-4.914 3.2805,-1.1219 6.4653,-2.5798 9.3066,-4.5664 2.8413,-1.9867 5.336,-4.518 7.0508,-7.5313 0.9342,-1.6417 1.6393,-3.4462 1.7774,-5.3301 0.1928,-2.6322 -0.7454,-5.2636 -2.2364,-7.4414 -1.4911,-2.1777 -3.5083,-3.9444 -5.6347,-5.5078 -11.2871,-8.2986 -25.8713,-11.1815 -39.8594,-10.4082 -8.0806,0.4467 -16.0494,2.0257 -24.0684,3.1172 -8.019,1.0915 -16.2187,1.6894 -24.1699,0.1816 -11.6504,-2.2094 -21.9848,-8.7667 -33.2598,-12.4394 -12.3519,-4.0235 -25.6035,-4.5134 -38.082,-8.125 -10.9003,-3.1549 -20.9655,-8.6163 -30.9746,-13.9629 -8.7911,-4.6959 -17.82258,-9.4052 -27.67383,-10.918 -9.63673,-1.4799 -19.47906,0.1973 -28.94336,2.5391 -10.02788,2.4811 -19.8677,5.7187 -29.41406,9.666 z"
     style="fill:none;fill-opacity:1;stroke:#e10000;stroke-width:5;stroke-linecap:butt;stroke-linejoin:miter;stroke-miterlimit:4;stroke-dasharray:none;stroke-opacity:1" />
</svg>
